<?xml version="1.0" encoding="UTF-8"?>
<svg id="_图层_1" data-name="图层 1" xmlns="http://www.w3.org/2000/svg" viewBox="0 0 512 512">
  <defs>
    <style>
      .cls-1 {
        fill: #4b4e6d;
      }

      .cls-2 {
        fill: #222;
      }

      .cls-3 {
        fill: #d496a7;
      }

      .cls-4 {
        fill: #a8e0ff;
      }

      .cls-5 {
        fill: #f4e8c1;
      }
    </style>
  </defs>
  <rect class="cls-4" x="0" y=".69" width="512" height="512"/>
  <g>
    <rect class="cls-2" x="245.02" y="205.28" width="21.96" height="101.44" transform="translate(617.88 266.74) rotate(136.7)"/>
    <path class="cls-1" d="M323.25,140.19c-5.54,3.93-12.65,5.71-18.74,3.25-1.01-.41-2.02-.82-3.02-1.23-3.5-.62-6.98-1.69-10.38-2.96,10.82,16.62,17.11,36.45,17.11,57.76,0,58.56-47.47,106.03-106.03,106.03-21.22,0-40.98-6.25-57.56-16.99.94,1.66,1.75,3.44,2.51,5.34,3.84,9.61,5.25,19.72,6.56,29.93.01.11.02.21.04.32,15.03,5.85,31.36,9.08,48.46,9.08,73.84,0,133.71-59.86,133.71-133.71,0-20.32-4.54-39.58-12.65-56.82Z"/>
    <path class="cls-5" d="M188.79,353.98c8.68-5.6,20.37-3.18,27.41,3.8-6.18-13.45-9.62-28.42-9.62-44.19,0-58.56,47.47-106.03,106.03-106.03,16.75,0,32.58,3.89,46.67,10.8-1.44-7.36-2.09-14.89-2.63-22.61-.2-2.81.28-5.51,1.27-8-14.15-5.09-29.4-7.88-45.3-7.88-73.84,0-133.71,59.86-133.71,133.71,0,14.91,2.44,29.25,6.95,42.64.92-.81,1.9-1.57,2.95-2.25Z"/>
    <path class="cls-3" d="M256,122.29c-73.84,0-133.71,59.86-133.71,133.71s59.86,133.71,133.71,133.71,133.71-59.86,133.71-133.71-59.86-133.71-133.71-133.71ZM256,362.03c-58.56,0-106.03-47.47-106.03-106.03s47.47-106.03,106.03-106.03,106.03,47.47,106.03,106.03-47.47,106.03-106.03,106.03Z"/>
  </g>
</svg>